<?xml version="1.0" encoding="UTF-8"?>
<svg width="700pt" height="700pt" version="1.1" viewBox="0 0 700 700" xmlns="http://www.w3.org/2000/svg" xmlns:xlink="http://www.w3.org/1999/xlink">
 <defs>
  <symbol id="u" overflow="visible">
   <path d="m1.7969-0.10938c-0.09375 0.054688-0.19531 0.089844-0.29688 0.10938-0.09375 0.019531-0.19922 0.03125-0.3125 0.03125-0.32422 0-0.57812-0.085938-0.76562-0.26562-0.1875-0.17578-0.28125-0.42188-0.28125-0.73438s0.09375-0.55469 0.28125-0.73438c0.1875-0.1875 0.44141-0.28125 0.76562-0.28125 0.11328 0 0.21875 0.015625 0.3125 0.046875 0.10156 0.023438 0.20312 0.054688 0.29688 0.09375v0.40625c-0.09375-0.0625-0.1875-0.10938-0.28125-0.14062s-0.1875-0.046875-0.28125-0.046875c-0.1875 0-0.33594 0.058594-0.4375 0.17188-0.09375 0.11719-0.14062 0.27734-0.14062 0.48438 0 0.19922 0.046875 0.35547 0.14062 0.46875 0.10156 0.11719 0.25 0.17188 0.4375 0.17188 0.09375 0 0.1875-0.015625 0.28125-0.046875s0.1875-0.078125 0.28125-0.14062z"/>
  </symbol>
  <symbol id="d" overflow="visible">
   <path d="m1.3125-1.0625c-0.042969-0.019531-0.085938-0.035156-0.125-0.046875-0.042969-0.007813-0.085938-0.015625-0.125-0.015625-0.11719 0-0.21094 0.042969-0.28125 0.125-0.0625 0.074219-0.09375 0.18359-0.09375 0.32812v0.67188h-0.46875v-1.4688h0.46875v0.25c0.0625-0.09375 0.12891-0.16016 0.20312-0.20312 0.082031-0.050781 0.17578-0.078125 0.28125-0.078125h0.046875c0.019531 0 0.050781 0.007812 0.09375 0.015625z"/>
  </symbol>
  <symbol id="a" overflow="visible">
   <path d="m1.6875-0.73438v0.14062h-1.0938c0.007812 0.10547 0.046875 0.1875 0.10938 0.25 0.070313 0.054688 0.17188 0.078125 0.29688 0.078125 0.09375 0 0.19141-0.015625 0.29688-0.046875 0.10156-0.03125 0.20703-0.078125 0.3125-0.14062v0.35938c-0.10547 0.042969-0.21484 0.074219-0.32812 0.09375-0.11719 0.019531-0.22656 0.03125-0.32812 0.03125-0.27344 0-0.48047-0.0625-0.625-0.1875-0.14844-0.13281-0.21875-0.32812-0.21875-0.57812 0-0.23828 0.070313-0.42578 0.21875-0.5625 0.14453-0.13281 0.34375-0.20312 0.59375-0.20312 0.22656 0 0.41016 0.074219 0.54688 0.21875 0.14453 0.13672 0.21875 0.32031 0.21875 0.54688zm-0.48438-0.15625c0-0.082031-0.027344-0.14844-0.078125-0.20312-0.054688-0.0625-0.12109-0.09375-0.20312-0.09375-0.09375 0-0.17188 0.027344-0.23438 0.078125-0.054688 0.054687-0.085938 0.125-0.09375 0.21875z"/>
  </symbol>
  <symbol id="l" overflow="visible">
   <path d="m0.875-0.65625c-0.09375 0-0.16797 0.015625-0.21875 0.046875-0.054688 0.03125-0.078125 0.078125-0.078125 0.14062s0.019531 0.11719 0.0625 0.15625c0.039063 0.03125 0.097656 0.046875 0.17188 0.046875 0.082031 0 0.15625-0.03125 0.21875-0.09375 0.0625-0.070313 0.09375-0.15625 0.09375-0.25v-0.046875zm0.71875-0.17188v0.82812h-0.46875v-0.21875c-0.0625 0.09375-0.13672 0.16406-0.21875 0.20312-0.074219 0.03125-0.16797 0.046875-0.28125 0.046875-0.15625 0-0.28125-0.039062-0.375-0.125-0.09375-0.09375-0.14062-0.20703-0.14062-0.34375 0-0.17578 0.054687-0.30078 0.17188-0.375 0.125-0.082031 0.3125-0.125 0.5625-0.125h0.28125v-0.03125c0-0.070312-0.03125-0.125-0.09375-0.15625-0.054688-0.039062-0.14062-0.0625-0.26562-0.0625-0.10547 0-0.19922 0.011719-0.28125 0.03125-0.085937 0.023438-0.16406 0.054688-0.23438 0.09375v-0.35938c0.09375-0.019531 0.19141-0.035156 0.29688-0.046875 0.10156-0.019531 0.20312-0.03125 0.29688-0.03125 0.25781 0 0.44531 0.054688 0.5625 0.15625 0.125 0.10547 0.1875 0.27734 0.1875 0.51562z"/>
  </symbol>
  <symbol id="c" overflow="visible">
   <path d="m0.73438-1.875v0.40625h0.48438v0.34375h-0.48438v0.625c0 0.0625 0.007813 0.10938 0.03125 0.14062 0.03125 0.023437 0.085937 0.03125 0.17188 0.03125h0.23438v0.32812h-0.39062c-0.1875 0-0.32422-0.035156-0.40625-0.10938-0.074219-0.082031-0.10938-0.21094-0.10938-0.39062v-0.625h-0.23438v-0.34375h0.23438v-0.40625z"/>
  </symbol>
  <symbol id="k" overflow="visible">
   <path d="m1.2188-1.25v-0.78125h0.46875v2.0312h-0.46875v-0.21875c-0.0625 0.09375-0.13672 0.16406-0.21875 0.20312-0.074219 0.03125-0.16406 0.046875-0.26562 0.046875-0.17969 0-0.32422-0.066406-0.4375-0.20312-0.11719-0.14453-0.17188-0.33203-0.17188-0.5625 0-0.21875 0.054688-0.39844 0.17188-0.54688 0.11328-0.14453 0.25781-0.21875 0.4375-0.21875 0.10156 0 0.19141 0.023438 0.26562 0.0625 0.082031 0.042969 0.15625 0.10547 0.21875 0.1875zm-0.3125 0.95312c0.10156 0 0.17969-0.035156 0.23438-0.10938 0.050781-0.070312 0.078125-0.17969 0.078125-0.32812 0-0.13281-0.027344-0.23828-0.078125-0.3125-0.054687-0.070313-0.13281-0.10938-0.23438-0.10938-0.09375 0-0.16797 0.039062-0.21875 0.10938-0.054688 0.074219-0.078125 0.17969-0.078125 0.3125 0 0.14844 0.023437 0.25781 0.078125 0.32812 0.050781 0.074219 0.125 0.10938 0.21875 0.10938z"/>
  </symbol>
  <symbol id="e" overflow="visible">
   <path d="m1-0.29688c0.10156 0 0.17969-0.035156 0.23438-0.10938 0.050781-0.070312 0.078125-0.17969 0.078125-0.32812 0-0.13281-0.027344-0.23828-0.078125-0.3125-0.054687-0.070313-0.13281-0.10938-0.23438-0.10938-0.09375 0-0.17188 0.039062-0.23438 0.10938-0.054687 0.074219-0.078125 0.17969-0.078125 0.3125 0 0.14844 0.023438 0.25781 0.078125 0.32812 0.0625 0.074219 0.14062 0.10938 0.23438 0.10938zm-0.3125-0.95312c0.0625-0.082031 0.12891-0.14453 0.20312-0.1875 0.082031-0.039062 0.17578-0.0625 0.28125-0.0625 0.1875 0 0.33594 0.074219 0.45312 0.21875 0.11328 0.14844 0.17188 0.32812 0.17188 0.54688 0 0.23047-0.058594 0.41797-0.17188 0.5625-0.11719 0.13672-0.26562 0.20312-0.45312 0.20312-0.10547 0-0.19922-0.015625-0.28125-0.046875-0.074219-0.039062-0.14062-0.10938-0.20312-0.20312v0.21875h-0.46875v-2.0312h0.46875z"/>
  </symbol>
  <symbol id="j" overflow="visible">
   <path d="m0.03125-1.4688h0.46875l0.39062 1 0.32812-1h0.46875l-0.60938 1.6094c-0.0625 0.15625-0.13672 0.26562-0.21875 0.32812-0.085937 0.070312-0.19531 0.10938-0.32812 0.10938h-0.26562v-0.3125h0.14062c0.082031 0 0.14062-0.015625 0.17188-0.046875 0.039063-0.023438 0.070313-0.0625 0.09375-0.125l0.015625-0.03125z"/>
  </symbol>
  <symbol id="i" overflow="visible">
   <path d="m0.25-1.9531h0.5v1.7656c0 0.23828-0.070312 0.41406-0.20312 0.53125-0.125 0.125-0.32422 0.1875-0.59375 0.1875h-0.10938v-0.375h0.078125c0.10156 0 0.17969-0.03125 0.23438-0.09375 0.0625-0.054688 0.09375-0.13281 0.09375-0.25z"/>
  </symbol>
  <symbol id="h" overflow="visible">
   <path d="m1.6875-0.89062v0.89062h-0.46875v-0.6875c0-0.125-0.007812-0.20703-0.015625-0.25 0-0.050781-0.007813-0.085938-0.015625-0.10938-0.023438-0.03125-0.046875-0.050781-0.078125-0.0625-0.03125-0.019531-0.070313-0.03125-0.10938-0.03125-0.09375 0-0.17188 0.039063-0.23438 0.10938-0.054687 0.074219-0.078125 0.17969-0.078125 0.3125v0.71875h-0.46875v-1.4688h0.46875v0.21875c0.070312-0.082031 0.14453-0.14453 0.21875-0.1875 0.082031-0.039062 0.17188-0.0625 0.26562-0.0625 0.17578 0 0.30469 0.054688 0.39062 0.15625 0.082031 0.10547 0.125 0.25781 0.125 0.45312z"/>
  </symbol>
  <symbol id="t" overflow="visible">
   <path d="m0.21875-1.4688h0.46875v1.4688h-0.46875zm0-0.5625h0.46875v0.375h-0.46875z"/>
  </symbol>
  <symbol id="s" overflow="visible">
   <path d="m0.015625-1.9531h1.7969v0.39062h-0.65625v1.5625h-0.5v-1.5625h-0.64062z"/>
  </symbol>
  <symbol id="b" overflow="visible">
   <path d="m0.92188-1.1562c-0.10547 0-0.1875 0.039062-0.25 0.10938-0.054687 0.074219-0.078125 0.17969-0.078125 0.3125 0 0.14844 0.023438 0.25781 0.078125 0.32812 0.0625 0.074219 0.14453 0.10938 0.25 0.10938 0.10156 0 0.17969-0.035156 0.23438-0.10938 0.050781-0.070312 0.078125-0.17969 0.078125-0.32812 0-0.13281-0.027344-0.23828-0.078125-0.3125-0.054688-0.070313-0.13281-0.10938-0.23438-0.10938zm0-0.34375c0.25 0 0.44141 0.070312 0.57812 0.20312 0.14453 0.13672 0.21875 0.32422 0.21875 0.5625 0 0.24219-0.074219 0.42969-0.21875 0.5625-0.13672 0.13672-0.32812 0.20312-0.57812 0.20312s-0.44922-0.066406-0.59375-0.20312c-0.14844-0.13281-0.21875-0.32031-0.21875-0.5625 0-0.23828 0.070313-0.42578 0.21875-0.5625 0.14453-0.13281 0.34375-0.20312 0.59375-0.20312z"/>
  </symbol>
  <symbol id="g" overflow="visible">
   <path d="m1.5781-1.2188c0.0625-0.09375 0.12891-0.16016 0.20312-0.20312 0.082031-0.050781 0.17578-0.078125 0.28125-0.078125 0.16406 0 0.28906 0.054688 0.375 0.15625 0.09375 0.10547 0.14062 0.25781 0.14062 0.45312v0.89062h-0.46875v-0.76562-0.03125-0.046875c0-0.10156-0.015625-0.17578-0.046875-0.21875-0.03125-0.050781-0.085938-0.078125-0.15625-0.078125-0.085938 0-0.15234 0.039063-0.20312 0.10938-0.042969 0.074219-0.070313 0.17969-0.078125 0.3125v0.71875h-0.46875v-0.76562c0-0.15625-0.015625-0.25391-0.046875-0.29688-0.023437-0.050781-0.070313-0.078125-0.14062-0.078125-0.085938 0-0.15234 0.039063-0.20312 0.10938-0.054687 0.074219-0.078125 0.17969-0.078125 0.3125v0.71875h-0.46875v-1.4688h0.46875v0.21875c0.0625-0.082031 0.12891-0.14453 0.20312-0.1875 0.070313-0.039062 0.15625-0.0625 0.25-0.0625s0.17578 0.027344 0.25 0.078125c0.082031 0.054687 0.14453 0.12109 0.1875 0.20312z"/>
  </symbol>
  <symbol id="f" overflow="visible">
   <path d="m1.4062-1.4219v0.39062c-0.0625-0.039062-0.125-0.070312-0.1875-0.09375-0.0625-0.019531-0.13281-0.03125-0.20312-0.03125-0.13672 0-0.24219 0.039062-0.3125 0.10938-0.074219 0.074219-0.10938 0.17969-0.10938 0.3125 0 0.13672 0.035156 0.24609 0.10938 0.32812 0.070313 0.074219 0.17578 0.10938 0.3125 0.10938 0.070313 0 0.14062-0.007813 0.20312-0.03125 0.070312-0.019531 0.13281-0.050781 0.1875-0.09375v0.375c-0.074219 0.03125-0.15234 0.050781-0.23438 0.0625-0.074219 0.0078125-0.14844 0.015625-0.21875 0.015625-0.26172 0-0.46875-0.066406-0.625-0.20312-0.14844-0.13281-0.21875-0.32031-0.21875-0.5625 0-0.23828 0.070313-0.42578 0.21875-0.5625 0.15625-0.13281 0.36328-0.20312 0.625-0.20312 0.082031 0 0.16016 0.011719 0.23438 0.03125 0.070312 0.011719 0.14453 0.027344 0.21875 0.046875z"/>
  </symbol>
  <symbol id="r" overflow="visible">
   <path d="m1.1875-2.0312v0.3125h-0.26562c-0.0625 0-0.10938 0.011719-0.14062 0.03125-0.023438 0.023438-0.03125 0.0625-0.03125 0.125v0.09375h0.40625v0.34375h-0.40625v1.125h-0.46875v-1.125h-0.23438v-0.34375h0.23438v-0.09375c0-0.15625 0.039062-0.26953 0.125-0.34375 0.09375-0.082031 0.23438-0.125 0.42188-0.125z"/>
  </symbol>
  <symbol id="q" overflow="visible">
   <path d="m1.6875-0.89062v0.89062h-0.46875v-0.67188c0-0.13281-0.007812-0.22266-0.015625-0.26562 0-0.050781-0.007813-0.085938-0.015625-0.10938-0.023438-0.03125-0.046875-0.050781-0.078125-0.0625-0.03125-0.019531-0.070313-0.03125-0.10938-0.03125-0.09375 0-0.17188 0.039063-0.23438 0.10938-0.054687 0.074219-0.078125 0.17969-0.078125 0.3125v0.71875h-0.46875v-2.0312h0.46875v0.78125c0.070312-0.082031 0.14453-0.14453 0.21875-0.1875 0.082031-0.039062 0.17188-0.0625 0.26562-0.0625 0.17578 0 0.30469 0.054688 0.39062 0.15625 0.082031 0.10547 0.125 0.25781 0.125 0.45312z"/>
  </symbol>
  <symbol id="p" overflow="visible">
   <path d="m0.25-1.9531h0.5625l0.70312 1.3438v-1.3438h0.46875v1.9531h-0.54688l-0.71875-1.3438v1.3438h-0.46875z"/>
  </symbol>
  <symbol id="o" overflow="visible">
   <path d="m0.20312-0.5625v-0.90625h0.46875v0.15625 0.29688 0.23438 0.26562c0.007813 0.042969 0.023437 0.078125 0.046875 0.10938 0.019531 0.03125 0.046875 0.058594 0.078125 0.078125 0.03125 0.011719 0.0625 0.015625 0.09375 0.015625 0.10156 0 0.17969-0.035156 0.23438-0.10938 0.050781-0.082031 0.078125-0.1875 0.078125-0.3125v-0.73438h0.46875v1.4688h-0.46875v-0.21875c-0.0625 0.09375-0.13672 0.16406-0.21875 0.20312-0.074219 0.03125-0.15625 0.046875-0.25 0.046875-0.17969 0-0.3125-0.046875-0.40625-0.14062-0.085937-0.10156-0.125-0.25391-0.125-0.45312z"/>
  </symbol>
  <symbol id="n" overflow="visible">
   <path d="m0.25-1.9531h0.82812c0.25 0 0.4375 0.058594 0.5625 0.17188 0.13281 0.10547 0.20312 0.26172 0.20312 0.46875 0 0.21094-0.070312 0.37109-0.20312 0.48438-0.125 0.10547-0.3125 0.15625-0.5625 0.15625h-0.32812v0.67188h-0.5zm0.5 0.375v0.53125h0.28125c0.09375 0 0.16406-0.019531 0.21875-0.0625 0.050781-0.050781 0.078125-0.11719 0.078125-0.20312 0-0.082031-0.027344-0.14453-0.078125-0.1875-0.054688-0.050781-0.125-0.078125-0.21875-0.078125z"/>
  </symbol>
  <symbol id="m" overflow="visible">
   <path d="m0.21875-1.4688h0.46875v1.4375c0 0.19531-0.046875 0.34766-0.14062 0.45312-0.09375 0.10156-0.23047 0.15625-0.40625 0.15625h-0.23438v-0.3125h0.078125c0.09375 0 0.15625-0.023437 0.1875-0.0625 0.03125-0.03125 0.046875-0.10938 0.046875-0.23438zm0-0.5625h0.46875v0.375h-0.46875z"/>
  </symbol>
 </defs>
 <g>
  <path d="m222.29 3.3398h209.46c10.688 0 22.977 12.289 22.977 23.512v215.88l-258.09 68.93v-43.281l40.609-9.6172 176.87-47.023v-167.79h-176.87v8.0156h-40.609v-24.047c0-11.754 13.359-24.582 25.648-24.582z" fill="#00449e" fill-rule="evenodd"/>
  <path d="m161.91 105.4h78.551c2.6719 0 4.8086-0.53516 5.3438-0.53516 16.566-4.8086 18.168-32.594-5.8789-33.129h-93.512c-29.391 0-61.984-2.6719-86.566 6.4141-73.742 27.785-74.809 121.3-27.25 156.57l123.43 59.312c21.91 10.688 34.199-17.633 18.703-26.719l-41.145-24.582c-5.8789-2.1367-12.824-7.4805-2.6719-9.6172l144.81-0.53516c19.238 0 24.047-31.527 0.53516-32.062h-4.2734-0.53516-109.54c-3.207 0-5.3438-2.6719-4.8086-5.8789 0.53516-2.1367 2.6719-3.7422 4.8086-3.7422 3.207-1.0703 7.4805-0.53516 12.824-0.53516h108.47c12.289 0.53516 25.648-1.0703 25.648-17.098 0-18.168-17.633-16.566-26.719-16.566h-86.031c-11.223 0-22.977-0.53516-34.199-0.53516-1.6016 0-2.6719-0.53516-3.7422-1.6016-1.0703-0.53516-1.0703-0.53516-1.0703-2.1367-0.53516-2.6719 1.6016-5.8789 4.8086-5.8789h109.54c10.688 0 20.84 0.53516 20.84-15.496 0-14.961-10.152-16.031-20.84-16.031h-109.54c-6.4141 0-6.4141-9.6172 0-9.6172z" fill="#00449e" fill-rule="evenodd"/>
  <path d="m478.25 558h-209.46c-11.223 0-23.512-12.289-23.512-23.512v-215.88l258.09-68.93v43.281l-40.609 9.6172-176.87 47.559v167.25h176.87v-8.0156h40.609v24.047c0 11.754-13.359 24.582-25.113 24.582z" fill="#00449e"  fill-rule="evenodd"/>
  <path d="m538.09 455.93h-78.551c-2.6719 0.53516-4.8086 0.53516-5.3438 0.53516-16.566 4.8086-18.168 33.129 6.4141 33.129h92.977c29.391 0.53516 61.984 2.6719 86.566-6.4141 74.273-27.785 74.809-121.3 27.25-156.57l-122.9-59.312c-22.441-10.688-34.734 17.633-19.238 26.719l41.145 24.582c5.8789 2.6719 12.824 7.4805 2.6719 9.6172l-144.81 0.53516c-19.238 0-24.047 31.527-0.53516 32.062h4.2734 0.53516 109.54c3.207 0 5.3438 2.6719 4.8086 5.8789v0.53516c-0.53516 1.6016-2.6719 3.207-4.8086 3.207-3.207 1.0703-7.4805 0.53516-12.824 0.53516h-108.47c-11.754 0-25.648 1.0703-25.648 17.098 0 18.168 17.633 16.566 26.719 16.566h86.031c11.754 0 22.977 0.53516 34.199 0.53516 1.6016 0 2.6719 0.53516 3.7422 1.6016 1.0703 0.53516 1.0703 1.0703 1.0703 2.1367 0.53516 3.207-1.6016 5.8789-4.8086 5.8789h-109.54c-10.152 0-20.84-0.53516-20.84 15.496 0 14.961 10.152 16.031 20.84 16.031h109.54c6.4141 0 6.4141 9.6172 0 9.6172z" fill="#00449e"  fill-rule="evenodd"/>
  <use y="566.011719" xlink:href="#u"/>
  <use x="1.960938" y="566.011719" xlink:href="#d"/>
  <use x="3.277344" y="566.011719" xlink:href="#a"/>
  <use x="5.089844" y="566.011719" xlink:href="#l"/>
  <use x="6.894531" y="566.011719" xlink:href="#c"/>
  <use x="8.171875" y="566.011719" xlink:href="#a"/>
  <use x="9.984375" y="566.011719" xlink:href="#k"/>
  <use x="12.824219" y="566.011719" xlink:href="#e"/>
  <use x="14.738281" y="566.011719" xlink:href="#j"/>
  <use x="17.410156" y="566.011719" xlink:href="#i"/>
  <use x="18.402344" y="566.011719" xlink:href="#a"/>
  <use x="20.214844" y="566.011719" xlink:href="#h"/>
  <use x="22.117188" y="566.011719" xlink:href="#t"/>
  <use x="23.035156" y="566.011719" xlink:href="#a"/>
  <use x="25.777344" y="566.011719" xlink:href="#s"/>
  <use x="27.597656" y="566.011719" xlink:href="#b"/>
  <use x="29.433594" y="566.011719" xlink:href="#g"/>
  <use x="32.21875" y="566.011719" xlink:href="#e"/>
  <use x="34.128906" y="566.011719" xlink:href="#b"/>
  <use x="35.964844" y="566.011719" xlink:href="#f"/>
  <use y="568.683594" xlink:href="#r"/>
  <use x="1.164062" y="568.683594" xlink:href="#d"/>
  <use x="2.480469" y="568.683594" xlink:href="#b"/>
  <use x="4.316406" y="568.683594" xlink:href="#g"/>
  <use x="8.03125" y="568.683594" xlink:href="#c"/>
  <use x="9.308594" y="568.683594" xlink:href="#q"/>
  <use x="11.207031" y="568.683594" xlink:href="#a"/>
  <use x="13.949219" y="568.683594" xlink:href="#p"/>
  <use x="16.1875" y="568.683594" xlink:href="#b"/>
  <use x="18.023438" y="568.683594" xlink:href="#o"/>
  <use x="19.925781" y="568.683594" xlink:href="#h"/>
  <use x="22.757813" y="568.683594" xlink:href="#n"/>
  <use x="24.714844" y="568.683594" xlink:href="#d"/>
  <use x="26.03125" y="568.683594" xlink:href="#b"/>
  <use x="27.867188" y="568.683594" xlink:href="#m"/>
  <use x="28.785156" y="568.683594" xlink:href="#a"/>
  <use x="30.597656" y="568.683594" xlink:href="#f"/>
  <use x="32.179688" y="568.683594" xlink:href="#c"/>
 </g>
</svg>
